PathFileType	4	(X/Y/Z)	C:/Users/opensim2020/Desktop/walking_exp_matlab/subject02_walking12_straight_01.trc	
DataRate	CameraRate	NumFrames	NumMarkers	Units	OrigDataRate	OrigDataStartFrame	OrigNumFrames	
100.00	100.00	6	42	mm	100.00	630	178	
Frame#	Time	LFHD			RFHD			LBHD			RBHD			C7			T10			CLAV			STRN			RBAK			LSHO			LUPA			LELB			LFRM			LWRA			LWRB			LFIN			RSHO			RUPA			RELB			RFRM			RWRA			RWRB			RFIN			LASI			RASI			LPSI			RPSI			LTHI			LKNE			LTIB			LANK			LHEE			LTOE			RTHI			RKNE			RTIB			RANK			RHEE			RTOE			*39			*40			*41			
		X1	Y1	Z1	X2	Y2	Z2	X3	Y3	Z3	X4	Y4	Z4	X5	Y5	Z5	X6	Y6	Z6	X7	Y7	Z7	X8	Y8	Z8	X9	Y9	Z9	X10	Y10	Z10	X11	Y11	Z11	X12	Y12	Z12	X13	Y13	Z13	X14	Y14	Z14	X15	Y15	Z15	X16	Y16	Z16	X17	Y17	Z17	X18	Y18	Z18	X19	Y19	Z19	X20	Y20	Z20	X21	Y21	Z21	X22	Y22	Z22	X23	Y23	Z23	X24	Y24	Z24	X25	Y25	Z25	X26	Y26	Z26	X27	Y27	Z27	X28	Y28	Z28	X29	Y29	Z29	X30	Y30	Z30	X31	Y31	Z31	X32	Y32	Z32	X33	Y33	Z33	X34	Y34	Z34	X35	Y35	Z35	X36	Y36	Z36	X37	Y37	Z37	X38	Y38	Z38	X39	Y39	Z39	X40	Y40	Z40	X41	Y41	Z41	X42	Y42	Z42	

134	1.330	-1052.90308	381.76715	1736.18115	-914.88525	345.31744	1707.14514	-1100.14185	259.46686	1661.40576	-967.64575	211.50519	1631.15063	-1032.56177	185.27249	1515.56824	-1020.98871	138.83400	1237.13538	-1042.10071	324.70590	1448.30261	-1037.92822	380.26740	1277.93054	-969.78058	131.22536	1338.19055	-1211.92944	259.34561	1493.20251	-1300.44922	261.11310	1295.79443	-1323.76038	282.93112	1155.30566	-1331.31519	351.28323	1038.25867	-1296.41724	459.41245	959.36499	-1325.92053	417.55753	934.72052	-1330.24414	467.02856	891.94318	-845.11884	261.26666	1477.16309	-764.26166	218.86826	1289.48315	-749.56799	218.21712	1142.57739	-729.62897	234.34982	1023.62720	-747.39923	270.67905	892.53009	-715.65479	223.10027	894.60132	-713.56976	251.48878	827.01270	-1170.37549	359.92413	970.17999	-915.29199	391.06564	974.52252	-1065.63367	161.52953	1020.12842	-950.51526	169.01422	1024.29102	-1227.52783	309.13388	660.94409	-1215.72754	293.18381	478.85971	-1199.03857	137.83226	381.18008	-1167.14636	-7.66504	216.91040	-1105.38171	-34.39231	212.98758	-1214.83252	48.50961	77.85336	-855.94946	379.49637	669.01892	-915.24408	409.12338	466.09174	-914.61121	370.77579	280.11761	-962.91412	342.07144	92.43681	-1019.49652	301.99576	40.90501	-957.96899	491.95416	41.81290	-987.46765	258.61230	1793.99561	-3356.88818	2845.93091	1034.12378			 
135	1.340	-1051.48865	394.95749	1738.43115	-913.52417	358.31161	1709.13721	-1099.32727	272.66422	1663.99146	-966.91479	224.30972	1633.54443	-1031.80823	198.11411	1518.08618	-1020.11145	151.41211	1239.61633	-1041.48059	337.55148	1450.67078	-1037.35925	392.82626	1280.17358	-968.69952	143.89281	1340.77380	-1211.02454	271.88443	1495.41528	-1299.15710	271.55356	1297.75867	-1320.76343	290.47333	1156.62927	-1329.10107	353.17352	1036.64111	-1295.18811	457.55795	952.00433	-1324.38965	414.29541	929.81610	-1328.70435	461.23734	884.17651	-844.45905	274.53922	1479.90308	-762.88550	234.16710	1292.27124	-747.95239	234.19058	1145.09900	-727.77057	252.92108	1026.68762	-745.79102	291.10336	896.19543	-714.03534	243.36461	897.37177	-711.81567	273.16763	830.52246	-1170.79504	371.30573	974.09412	-914.27435	402.59927	976.73273	-1063.77502	173.76665	1022.62561	-949.06860	181.31206	1026.49463	-1226.34045	329.16290	664.20581	-1213.59070	317.80734	481.95947	-1196.98889	164.98801	381.76663	-1167.46155	23.09050	213.17297	-1106.24231	-5.24939	208.15089	-1214.39001	85.87015	77.18153	-854.78174	386.31064	669.33228	-913.81396	412.28415	465.57797	-913.91809	372.53357	279.87271	-962.73151	342.04034	92.52281	-1019.45825	301.84915	40.93059	-957.60870	491.76425	41.77098	-986.33130	271.69348	1796.32141	-3356.91284	2845.97974	1034.20813			 
136	1.350	-1050.35754	408.13782	1740.50586	-912.56238	370.85892	1711.08337	-1098.43286	285.80518	1666.35205	-966.33551	236.80528	1635.98779	-1031.15540	210.93936	1520.32996	-1019.13934	163.93222	1242.05334	-1040.88513	350.30972	1452.95679	-1036.79321	405.40155	1282.34253	-967.66229	156.53232	1343.25195	-1210.32458	284.38974	1497.71021	-1297.60461	282.24069	1299.57275	-1318.06860	298.19492	1158.10022	-1326.88953	354.67789	1035.39575	-1293.55579	454.88455	945.08362	-1322.99988	410.58820	925.44440	-1327.20618	454.66785	876.91162	-844.01587	287.14465	1482.74744	-761.56299	249.22687	1295.05090	-745.83411	250.79944	1148.16626	-726.18561	271.11719	1029.54895	-744.29144	311.79776	899.95178	-712.35406	264.24344	900.32629	-709.89240	295.68307	834.40698	-1170.91553	382.87637	978.14337	-913.17291	413.92215	978.73328	-1062.19531	186.12660	1025.11804	-947.55737	193.50801	1028.68274	-1225.24048	348.67789	667.54303	-1211.44153	341.96573	485.16577	-1195.41028	192.11542	381.47336	-1167.82092	54.67110	208.18410	-1107.40332	24.94995	201.96643	-1213.40320	124.63500	75.74117	-853.51373	392.77625	669.66193	-912.65717	415.09894	465.17172	-913.53717	373.70770	279.63541	-962.69336	342.08392	92.55070	-1019.51056	301.82706	41.01548	-957.23297	491.62561	41.66172	-985.11603	284.90237	1798.59583	-3360.29419	2845.40747	1034.27832			 
137	1.360	-1049.63293	421.36111	1742.60193	-911.83679	383.49490	1712.83533	-1097.71460	298.86057	1668.63489	-965.77472	249.43677	1638.11060	-1030.34534	223.79289	1522.79871	-1018.25916	176.33192	1244.26917	-1040.35327	363.06284	1455.10938	-1036.14429	417.86969	1284.44031	-966.84277	169.15706	1345.65564	-1209.64331	296.84210	1499.91687	-1295.85571	293.11395	1301.23132	-1315.50574	306.00793	1159.55212	-1324.86206	356.24347	1034.25110	-1292.15906	451.77722	938.61102	-1321.65637	406.46951	921.62720	-1325.82068	447.58038	870.40131	-843.49731	300.38980	1485.35962	-760.22382	264.10303	1297.72668	-743.93439	266.93805	1150.76355	-724.47961	290.07687	1032.66602	-742.87494	332.64099	903.84882	-710.69916	285.24185	903.10883	-708.05933	318.31155	838.19653	-1170.52759	394.92706	982.16797	-912.04584	424.88223	980.32477	-1060.87012	198.68030	1027.52197	-946.11127	204.96490	1031.01172	-1224.16992	367.75366	671.00262	-1209.23584	365.72803	488.32053	-1194.33472	219.17412	380.26016	-1168.21899	86.89376	202.22664	-1108.17090	55.99203	194.57079	-1212.20996	164.39684	73.70212	-852.39148	399.15756	669.83197	-911.60138	417.62479	464.77301	-913.15704	374.69669	279.46310	-962.84161	342.00833	92.62185	-1019.65607	301.81552	41.10101	-956.90967	491.59320	41.55694	-984.30981	297.90933	1800.59546	-3360.18628	2845.08276	1034.35632			 
138	1.370	-1048.27393	434.26584	1744.32593	-910.94867	396.27063	1714.62012	-1097.02979	311.84564	1670.69983	-964.96704	262.56058	1639.92090	-1029.86646	236.57533	1524.95239	-1017.36664	188.83244	1246.39514	-1039.88416	375.77051	1457.17981	-1035.39526	430.38461	1286.39258	-965.99152	181.68175	1347.90833	-1209.16296	309.23822	1501.88110	-1294.49072	303.96494	1302.82336	-1313.07813	313.84027	1160.93665	-1322.94031	357.67712	1033.52478	-1290.79358	448.35742	932.58911	-1320.49023	402.12561	918.49371	-1324.37146	439.94290	864.61475	-843.02649	313.11520	1487.99622	-758.88141	278.82178	1300.33325	-742.06207	283.10382	1153.26477	-722.84119	308.51224	1035.63562	-741.51636	353.54642	907.80225	-709.23016	306.32697	905.90564	-706.48218	341.11557	841.83643	-1169.42725	408.18259	986.11572	-910.62183	436.12253	981.87372	-1059.93384	211.27144	1029.79712	-944.97644	217.16243	1033.12927	-1223.08325	386.37402	674.57562	-1207.15063	389.03882	491.04367	-1193.76147	246.11685	378.23218	-1168.37964	120.38512	194.90729	-1109.08142	88.53300	185.95929	-1210.92419	205.11574	71.07115	-851.38147	404.75009	669.74158	-910.73132	419.87180	464.33850	-912.96039	374.99344	279.52698	-963.14923	341.93927	92.67489	-1019.71918	301.97955	41.07663	-956.67554	491.54654	41.43795	-983.40393	311.01624	1802.64636	-3360.38208	2845.17236	1034.19373			 
139	1.380	-1047.31421	447.16608	1745.80884	-910.15735	409.13263	1716.15967	-1096.40808	324.81427	1672.63452	-964.63647	275.00311	1641.84009	-1029.32104	249.32329	1526.86292	-1016.34631	201.34149	1248.26770	-1039.40698	388.43930	1459.06409	-1034.61426	442.86172	1288.27795	-965.15509	194.12909	1350.03491	-1208.60339	321.52316	1503.53455	-1293.42712	314.86328	1304.22327	-1310.86780	321.66565	1162.19470	-1321.57092	359.06641	1033.31335	-1289.39124	444.52731	927.14990	-1319.47888	397.72629	915.93542	-1323.05957	432.15213	859.63470	-842.75433	325.82266	1490.46680	-757.55914	293.50351	1302.98730	-739.96143	299.45898	1155.96729	-721.16040	327.20850	1038.73389	-740.37115	374.74496	911.88153	-707.53607	328.07278	908.94025	-704.86261	364.51270	846.04193	-1167.54016	420.85995	989.58337	-908.85559	447.63632	983.38892	-1059.26563	223.87758	1031.86890	-944.18488	229.47827	1034.95129	-1222.14929	404.67773	678.30042	-1205.56470	411.87018	494.05026	-1193.27551	273.07706	375.36975	-1168.37952	154.66283	186.85896	-1109.35620	122.14927	176.43352	-1209.42529	246.24049	67.85437	-850.81409	410.03189	669.33630	-910.17139	422.27347	463.97110	-912.83606	375.05075	279.73993	-963.43573	341.90500	92.81209	-1019.82648	302.04193	40.83535	-956.47858	491.54059	41.28359	-982.72290	324.03296	1804.47705	-3360.25684	2845.17896	1034.28308			 
